<?xml version="1.0" encoding="utf-8"?>
<!-- Generator: Adobe Illustrator 22.1.0, SVG Export Plug-In . SVG Version: 6.00 Build 0)  -->
<svg version="1.1" id="Réteg_1" xmlns="http://www.w3.org/2000/svg" xmlns:xlink="http://www.w3.org/1999/xlink" x="0px" y="0px"
	 viewBox="0 0 760 91.4" style="enable-background:new 0 0 760 91.4;" xml:space="preserve">
<style type="text/css">
	.st0{fill:#FFFFFF;}
	.st1{fill:none;stroke:#1D71B8;stroke-width:3;stroke-miterlimit:10;}
</style>
<path class="st0" d="M1135.3-70.1c0,33.2-33.8,60.2-75.6,60.2c-41.8,0-75.6-27-75.6-60.2c0,33.2-33.8,60.2-75.6,60.2
	c-41.8,0-75.6-27-75.6-60.2c0,33.2-33.8,60.2-75.6,60.2c-41.8,0-75.6-27-75.6-60.2c0,33.2-33.8,60.2-75.6,60.2
	c-41.8,0-75.6-27-75.6-60.2c0,33.2-33.8,60.2-75.6,60.2s-75.6-27-75.6-60.2c0,33.2-33.8,60.2-75.6,60.2s-75.6-27-75.6-60.2
	c0,33.2-33.8,60.2-75.6,60.2s-75.6-27-75.6-60.2c0,33.2-33.8,60.2-75.6,60.2s-75.6-27-75.6-60.2c0,33.2-33.8,60.2-75.6,60.2
	s-74.4-26.8-74.4-60.2c0,33.2-33.8,60.2-75.6,60.2s-75.4-26.8-75.4-60.2v178h1510.6V-70.1z"/>
<path class="st1" d="M-224.3-70.1c0,33.2-33.8,60.2-75.6,60.2s-75.4-26.8-75.4-60.2"/>
<path class="st1" d="M-73.3-70.1c0,33.2-33.8,60.2-75.6,60.2s-75.4-26.8-75.4-60.2"/>
<path class="st1" d="M77.8-70.1c0,33.2-33.8,60.2-75.6,60.2s-75.6-27-75.6-60.2"/>
<path class="st1" d="M228.9-70.1c0,33.2-33.8,60.2-75.6,60.2s-75.6-27-75.6-60.2"/>
<path class="st1" d="M379.9-70.1c0,33.2-33.8,60.2-75.6,60.2s-75.6-27-75.6-60.2"/>
<path class="st1" d="M531-70.1c0,33.2-33.8,60.2-75.6,60.2s-75.6-27-75.6-60.2"/>
<path class="st1" d="M682-70.1c0,33.2-33.8,60.2-75.6,60.2c-41.8,0-75.6-27-75.6-60.2"/>
<path class="st1" d="M833-70.1c0,33.2-33.8,60.2-75.6,60.2c-41.8,0-75.6-27-75.6-60.2"/>
<path class="st1" d="M984.2-70.1c0,33.2-33.8,60.2-75.6,60.2c-41.8,0-75.6-27-75.6-60.2"/>
<path class="st1" d="M1135.3-70.1c0,33.2-33.8,60.2-75.6,60.2c-41.8,0-75.6-27-75.6-60.2"/>
</svg>
