<?xml version="1.0" encoding="utf-8"?>
<!-- Generator: Adobe Illustrator 22.1.0, SVG Export Plug-In . SVG Version: 6.00 Build 0)  -->
<svg version="1.1" id="Réteg_1" xmlns="http://www.w3.org/2000/svg" xmlns:xlink="http://www.w3.org/1999/xlink" x="0px" y="0px"
	 viewBox="0 0 841.9 595.3" style="enable-background:new 0 0 841.9 595.3;" xml:space="preserve">
<style type="text/css">
	.st0{fill:#FFFFFF;}
	.st1{fill:none;stroke:#1D71B8;stroke-width:3;stroke-miterlimit:10;}
</style>
<path class="st0" d="M798.6,201.4c0,16.6-16.9,30.1-37.8,30.1c-20.9,0-37.8-13.5-37.8-30.1c0,16.6-16.9,30.1-37.8,30.1
	c-20.9,0-37.8-13.5-37.8-30.1c0,16.6-16.9,30.1-37.8,30.1c-20.9,0-37.8-13.5-37.8-30.1c0,16.6-16.9,30.1-37.8,30.1
	s-37.8-13.5-37.8-30.1c0,16.6-16.9,30.1-37.8,30.1s-37.8-13.5-37.8-30.1c0,16.6-16.9,30.1-37.8,30.1c-20.9,0-37.8-13.5-37.8-30.1
	c0,16.6-16.9,30.1-37.8,30.1c-20.9,0-37.8-13.5-37.8-30.1c0,16.6-16.9,30.1-37.8,30.1s-37.8-13.5-37.8-30.1
	c0,16.6-16.9,30.1-37.8,30.1s-37.8-13.5-37.8-30.1c0,16.6-16.9,30.1-37.8,30.1s-37.8-13.5-37.8-30.1v89h755.3V201.4z"/>
<path class="st1" d="M118.8,201.4c0,16.6-16.9,30.1-37.8,30.1s-37.8-13.5-37.8-30.1"/>
<path class="st1" d="M194.3,201.4c0,16.6-16.9,30.1-37.8,30.1s-37.8-13.5-37.8-30.1"/>
<path class="st1" d="M269.9,201.4c0,16.6-16.9,30.1-37.8,30.1s-37.8-13.5-37.8-30.1"/>
<path class="st1" d="M345.4,201.4c0,16.6-16.9,30.1-37.8,30.1c-20.9,0-37.8-13.5-37.8-30.1"/>
<path class="st1" d="M420.9,201.4c0,16.6-16.9,30.1-37.8,30.1c-20.9,0-37.8-13.5-37.8-30.1"/>
<path class="st1" d="M496.5,201.4c0,16.6-16.9,30.1-37.8,30.1s-37.8-13.5-37.8-30.1"/>
<path class="st1" d="M572,201.4c0,16.6-16.9,30.1-37.8,30.1s-37.8-13.5-37.8-30.1"/>
<path class="st1" d="M647.5,201.4c0,16.6-16.9,30.1-37.8,30.1c-20.9,0-37.8-13.5-37.8-30.1"/>
<path class="st1" d="M723.1,201.4c0,16.6-16.9,30.1-37.8,30.1c-20.9,0-37.8-13.5-37.8-30.1"/>
<path class="st1" d="M798.6,201.4c0,16.6-16.9,30.1-37.8,30.1c-20.9,0-37.8-13.5-37.8-30.1"/>
</svg>
