<?xml version="1.0" encoding="utf-8"?>
<!-- Generator: Adobe Illustrator 22.1.0, SVG Export Plug-In . SVG Version: 6.00 Build 0)  -->
<svg version="1.1" id="Réteg_1" xmlns="http://www.w3.org/2000/svg" xmlns:xlink="http://www.w3.org/1999/xlink" x="0px" y="0px"
	 viewBox="0 0 760 91.4" style="enable-background:new 0 0 760 91.4;" xml:space="preserve">
<style type="text/css">
	.st0{fill:#FFFFFF;}
	.st1{fill:none;stroke:#1D71B8;stroke-width:3;stroke-miterlimit:10;}
</style>
<path class="st0" d="M757.6,2.4c0,16.6-16.9,30.1-37.8,30.1c-20.9,0-37.8-13.5-37.8-30.1c0,16.6-16.9,30.1-37.8,30.1
	c-20.9,0-37.8-13.5-37.8-30.1c0,16.6-16.9,30.1-37.8,30.1c-20.9,0-37.8-13.5-37.8-30.1c0,16.6-16.9,30.1-37.8,30.1
	c-20.9,0-37.8-13.5-37.8-30.1c0,16.6-16.9,30.1-37.8,30.1s-37.8-13.5-37.8-30.1c0,16.6-16.9,30.1-37.8,30.1
	c-20.9,0-37.8-13.5-37.8-30.1c0,16.6-16.9,30.1-37.8,30.1c-20.9,0-37.8-13.5-37.8-30.1c0,16.6-16.9,30.1-37.8,30.1
	s-37.8-13.5-37.8-30.1c0,16.6-16.9,30.1-37.8,30.1S77.8,19.1,77.8,2.4c0,16.6-16.9,30.1-37.8,30.1S2.3,19.1,2.3,2.4v89h755.3V2.4z"
	/>
<path class="st1" d="M77.8,2.4c0,16.6-16.9,30.1-37.8,30.1S2.3,19.1,2.3,2.4"/>
<path class="st1" d="M153.3,2.4c0,16.6-16.9,30.1-37.8,30.1S77.8,19.1,77.8,2.4"/>
<path class="st1" d="M228.9,2.4c0,16.6-16.9,30.1-37.8,30.1s-37.8-13.5-37.8-30.1"/>
<path class="st1" d="M304.4,2.4c0,16.6-16.9,30.1-37.8,30.1c-20.9,0-37.8-13.5-37.8-30.1"/>
<path class="st1" d="M379.9,2.4c0,16.6-16.9,30.1-37.8,30.1c-20.9,0-37.8-13.5-37.8-30.1"/>
<path class="st1" d="M455.5,2.4c0,16.6-16.9,30.1-37.8,30.1s-37.8-13.5-37.8-30.1"/>
<path class="st1" d="M531,2.4c0,16.6-16.9,30.1-37.8,30.1c-20.9,0-37.8-13.5-37.8-30.1"/>
<path class="st1" d="M606.5,2.4c0,16.6-16.9,30.1-37.8,30.1c-20.9,0-37.8-13.5-37.8-30.1"/>
<path class="st1" d="M682.1,2.4c0,16.6-16.9,30.1-37.8,30.1c-20.9,0-37.8-13.5-37.8-30.1"/>
<path class="st1" d="M757.6,2.4c0,16.6-16.9,30.1-37.8,30.1c-20.9,0-37.8-13.5-37.8-30.1"/>
</svg>
