<?xml version="1.0" encoding="utf-8"?>
<!-- Generator: Adobe Illustrator 22.1.0, SVG Export Plug-In . SVG Version: 6.00 Build 0)  -->
<svg version="1.1" id="Réteg_1" xmlns="http://www.w3.org/2000/svg" xmlns:xlink="http://www.w3.org/1999/xlink" x="0px" y="0px"
	 viewBox="0 0 760 91.4" style="enable-background:new 0 0 760 91.4;" xml:space="preserve">
<style type="text/css">
	.st0{fill:#FFFFFF;}
	.st1{fill:none;stroke:#1D71B8;stroke-width:3;stroke-miterlimit:10;}
</style>
<path class="st0" d="M758.5,0c0,16.6-16.9,30.2-37.9,30.2c-20.9,0-37.9-13.5-37.9-30.2c0,16.6-16.9,30.2-37.9,30.2
	C623.9,30.2,607,16.6,607,0c0,16.6-16.9,30.2-37.9,30.2S531.2,16.6,531.2,0c0,16.6-16.9,30.2-37.9,30.2S455.4,16.6,455.4,0
	c0,16.6-16.9,30.2-37.9,30.2S379.6,16.6,379.6,0c0,16.6-16.9,30.2-37.9,30.2c-20.9,0-37.9-13.5-37.9-30.2
	c0,16.6-16.9,30.2-37.9,30.2S228.1,16.6,228.1,0c0,16.6-16.9,30.2-37.9,30.2S152.3,16.6,152.3,0c0,16.6-16.9,30.2-37.9,30.2
	S77.1,16.7,77.1,0c0,16.6-16.9,30.2-37.9,30.2S1.5,16.7,1.5,0v89.2h757V0z"/>
<path class="st1" d="M77.1,0c0,16.6-16.9,30.2-37.9,30.2S1.5,16.7,1.5,0"/>
<path class="st1" d="M152.8,0c0,16.6-16.9,30.2-37.9,30.2S77.1,16.7,77.1,0"/>
<path class="st1" d="M228.6,0c0,16.6-16.9,30.2-37.9,30.2S152.8,16.6,152.8,0"/>
<path class="st1" d="M304.3,0c0,16.6-16.9,30.2-37.9,30.2S228.5,16.6,228.5,0"/>
<path class="st1" d="M379.9,0c0,16.6-16.9,30.2-37.9,30.2S304.2,16.6,304.2,0"/>
<path class="st1" d="M455.7,0c0,16.6-16.9,30.2-37.9,30.2c-20.9,0-37.9-13.5-37.9-30.2"/>
<path class="st1" d="M531.4,0c0,16.6-16.9,30.2-37.9,30.2c-20.9,0-37.9-13.5-37.9-30.2"/>
<path class="st1" d="M607.1,0c0,16.6-16.9,30.2-37.9,30.2S531.3,16.6,531.3,0"/>
<path class="st1" d="M682.8,0c0,16.6-16.9,30.2-37.9,30.2S607.1,16.6,607.1,0"/>
<path class="st1" d="M758.5,0c0,16.6-16.9,30.2-37.9,30.2c-20.9,0-37.9-13.5-37.9-30.2"/>

<path class="st0" d="M758.5,0c0,16.6-16.9,30.2-37.9,30.2c-20.9,0-37.9-13.5-37.9-30.2c0,16.6-16.9,30.2-37.9,30.2
	C623.9,30.2,607,16.6,607,0c0,16.6-16.9,30.2-37.9,30.2S531.2,16.6,531.2,0c0,16.6-16.9,30.2-37.9,30.2S455.4,16.6,455.4,0
	c0,16.6-16.9,30.2-37.9,30.2S379.6,16.6,379.6,0c0,16.6-16.9,30.2-37.9,30.2c-20.9,0-37.9-13.5-37.9-30.2
	c0,16.6-16.9,30.2-37.9,30.2S228.1,16.6,228.1,0c0,16.6-16.9,30.2-37.9,30.2S152.3,16.6,152.3,0c0,16.6-16.9,30.2-37.9,30.2
	S77.1,16.7,77.1,0c0,16.6-16.9,30.2-37.9,30.2S1.5,16.7,1.5,0v89.2h757V0z"/>
<path class="st1" d="M77.1,0c0,16.6-16.9,30.2-37.9,30.2S1.5,16.7,1.5,0"/>
<path class="st1" d="M152.8,0c0,16.6-16.9,30.2-37.9,30.2S77.1,16.7,77.1,0"/>
<path class="st1" d="M228.6,0c0,16.6-16.9,30.2-37.9,30.2S152.8,16.6,152.8,0"/>
<path class="st1" d="M304.3,0c0,16.6-16.9,30.2-37.9,30.2S228.5,16.6,228.5,0"/>
<path class="st1" d="M379.9,0c0,16.6-16.9,30.2-37.9,30.2S304.2,16.6,304.2,0"/>
<path class="st1" d="M455.7,0c0,16.6-16.9,30.2-37.9,30.2c-20.9,0-37.9-13.5-37.9-30.2"/>
<path class="st1" d="M531.4,0c0,16.6-16.9,30.2-37.9,30.2c-20.9,0-37.9-13.5-37.9-30.2"/>
<path class="st1" d="M607.1,0c0,16.6-16.9,30.2-37.9,30.2S531.3,16.6,531.3,0"/>
<path class="st1" d="M682.8,0c0,16.6-16.9,30.2-37.9,30.2S607.1,16.6,607.1,0"/>
<path class="st1" d="M758.5,0c0,16.6-16.9,30.2-37.9,30.2c-20.9,0-37.9-13.5-37.9-30.2"/>

<path class="st0" d="M758.5,0c0,16.6-16.9,30.2-37.9,30.2c-20.9,0-37.9-13.5-37.9-30.2c0,16.6-16.9,30.2-37.9,30.2
	C623.9,30.2,607,16.6,607,0c0,16.6-16.9,30.2-37.9,30.2S531.2,16.6,531.2,0c0,16.6-16.9,30.2-37.9,30.2S455.4,16.6,455.4,0
	c0,16.6-16.9,30.2-37.9,30.2S379.6,16.6,379.6,0c0,16.6-16.9,30.2-37.9,30.2c-20.9,0-37.9-13.5-37.9-30.2
	c0,16.6-16.9,30.2-37.9,30.2S228.1,16.6,228.1,0c0,16.6-16.9,30.2-37.9,30.2S152.3,16.6,152.3,0c0,16.6-16.9,30.2-37.9,30.2
	S77.1,16.7,77.1,0c0,16.6-16.9,30.2-37.9,30.2S1.5,16.7,1.5,0v89.2h757V0z"/>
<path class="st1" d="M77.1,0c0,16.6-16.9,30.2-37.9,30.2S1.5,16.7,1.5,0"/>
<path class="st1" d="M152.8,0c0,16.6-16.9,30.2-37.9,30.2S77.1,16.7,77.1,0"/>
<path class="st1" d="M228.6,0c0,16.6-16.9,30.2-37.9,30.2S152.8,16.6,152.8,0"/>
<path class="st1" d="M304.3,0c0,16.6-16.9,30.2-37.9,30.2S228.5,16.6,228.5,0"/>
<path class="st1" d="M379.9,0c0,16.6-16.9,30.2-37.9,30.2S304.2,16.6,304.2,0"/>
<path class="st1" d="M455.7,0c0,16.6-16.9,30.2-37.9,30.2c-20.9,0-37.9-13.5-37.9-30.2"/>
<path class="st1" d="M531.4,0c0,16.6-16.9,30.2-37.9,30.2c-20.9,0-37.9-13.5-37.9-30.2"/>
<path class="st1" d="M607.1,0c0,16.6-16.9,30.2-37.9,30.2S531.3,16.6,531.3,0"/>
<path class="st1" d="M682.8,0c0,16.6-16.9,30.2-37.9,30.2S607.1,16.6,607.1,0"/>
<path class="st1" d="M758.5,0c0,16.6-16.9,30.2-37.9,30.2c-20.9,0-37.9-13.5-37.9-30.2"/>
<path class="st0" d="M758.5,0c0,16.6-16.9,30.2-37.9,30.2c-20.9,0-37.9-13.5-37.9-30.2c0,16.6-16.9,30.2-37.9,30.2
	C623.9,30.2,607,16.6,607,0c0,16.6-16.9,30.2-37.9,30.2S531.2,16.6,531.2,0c0,16.6-16.9,30.2-37.9,30.2S455.4,16.6,455.4,0
	c0,16.6-16.9,30.2-37.9,30.2S379.6,16.6,379.6,0c0,16.6-16.9,30.2-37.9,30.2c-20.9,0-37.9-13.5-37.9-30.2
	c0,16.6-16.9,30.2-37.9,30.2S228.1,16.6,228.1,0c0,16.6-16.9,30.2-37.9,30.2S152.3,16.6,152.3,0c0,16.6-16.9,30.2-37.9,30.2
	S77.1,16.7,77.1,0c0,16.6-16.9,30.2-37.9,30.2S1.5,16.7,1.5,0v89.2h757V0z"/>
<path class="st1" d="M77.1,0c0,16.6-16.9,30.2-37.9,30.2S1.5,16.7,1.5,0"/>
<path class="st1" d="M152.8,0c0,16.6-16.9,30.2-37.9,30.2S77.1,16.7,77.1,0"/>
<path class="st1" d="M228.6,0c0,16.6-16.9,30.2-37.9,30.2S152.8,16.6,152.8,0"/>
<path class="st1" d="M304.3,0c0,16.6-16.9,30.2-37.9,30.2S228.5,16.6,228.5,0"/>
<path class="st1" d="M379.9,0c0,16.6-16.9,30.2-37.9,30.2S304.2,16.6,304.2,0"/>
<path class="st1" d="M455.7,0c0,16.6-16.9,30.2-37.9,30.2c-20.9,0-37.9-13.5-37.9-30.2"/>
<path class="st1" d="M531.4,0c0,16.6-16.9,30.2-37.9,30.2c-20.9,0-37.9-13.5-37.9-30.2"/>
<path class="st1" d="M607.1,0c0,16.6-16.9,30.2-37.9,30.2S531.3,16.6,531.3,0"/>
<path class="st1" d="M682.8,0c0,16.6-16.9,30.2-37.9,30.2S607.1,16.6,607.1,0"/>
<path class="st1" d="M758.5,0c0,16.6-16.9,30.2-37.9,30.2c-20.9,0-37.9-13.5-37.9-30.2"/>
<path class="st0" d="M758.5,0c0,16.6-16.9,30.2-37.9,30.2c-20.9,0-37.9-13.5-37.9-30.2c0,16.6-16.9,30.2-37.9,30.2
	C623.9,30.2,607,16.6,607,0c0,16.6-16.9,30.2-37.9,30.2S531.2,16.6,531.2,0c0,16.6-16.9,30.2-37.9,30.2S455.4,16.6,455.4,0
	c0,16.6-16.9,30.2-37.9,30.2S379.6,16.6,379.6,0c0,16.6-16.9,30.2-37.9,30.2c-20.9,0-37.9-13.5-37.9-30.2
	c0,16.6-16.9,30.2-37.9,30.2S228.1,16.6,228.1,0c0,16.6-16.9,30.2-37.9,30.2S152.3,16.6,152.3,0c0,16.6-16.9,30.2-37.9,30.2
	S77.1,16.7,77.1,0c0,16.6-16.9,30.2-37.9,30.2S1.5,16.7,1.5,0v89.2h757V0z"/>
<path class="st1" d="M77.1,0c0,16.6-16.9,30.2-37.9,30.2S1.5,16.7,1.5,0"/>
<path class="st1" d="M152.8,0c0,16.6-16.9,30.2-37.9,30.2S77.1,16.7,77.1,0"/>
<path class="st1" d="M228.6,0c0,16.6-16.9,30.2-37.9,30.2S152.8,16.6,152.8,0"/>
<path class="st1" d="M304.3,0c0,16.6-16.9,30.2-37.9,30.2S228.5,16.6,228.5,0"/>
<path class="st1" d="M379.9,0c0,16.6-16.9,30.2-37.9,30.2S304.2,16.6,304.2,0"/>
<path class="st1" d="M455.7,0c0,16.6-16.9,30.2-37.9,30.2c-20.9,0-37.9-13.5-37.9-30.2"/>
<path class="st1" d="M531.4,0c0,16.6-16.9,30.2-37.9,30.2c-20.9,0-37.9-13.5-37.9-30.2"/>
<path class="st1" d="M607.1,0c0,16.6-16.9,30.2-37.9,30.2S531.3,16.6,531.3,0"/>
<path class="st1" d="M682.8,0c0,16.6-16.9,30.2-37.9,30.2S607.1,16.6,607.1,0"/>
<path class="st1" d="M758.5,0c0,16.6-16.9,30.2-37.9,30.2c-20.9,0-37.9-13.5-37.9-30.2"/>
</svg>
